<svg id="visual" viewBox="0 0 900 600" width="900" height="600" xmlns="http://www.w3.org/2000/svg" xmlns:xlink="http://www.w3.org/1999/xlink" version="1.1"><rect x="0" y="0" width="900" height="600" fill="#261B11"></rect><path d="M0 393L129 365L257 398L386 391L514 415L643 433L771 384L900 411L900 601L771 601L643 601L514 601L386 601L257 601L129 601L0 601Z" fill="#d9b596"></path><path d="M0 417L129 465L257 441L386 411L514 398L643 416L771 442L900 449L900 601L771 601L643 601L514 601L386 601L257 601L129 601L0 601Z" fill="#c5a182"></path><path d="M0 444L129 491L257 486L386 504L514 497L643 507L771 483L900 465L900 601L771 601L643 601L514 601L386 601L257 601L129 601L0 601Z" fill="#b28e6e"></path><path d="M0 505L129 504L257 505L386 507L514 540L643 537L771 518L900 505L900 601L771 601L643 601L514 601L386 601L257 601L129 601L0 601Z" fill="#9f7b5b"></path><path d="M0 527L129 558L257 537L386 556L514 555L643 529L771 567L900 524L900 601L771 601L643 601L514 601L386 601L257 601L129 601L0 601Z" fill="#8c6849"></path></svg>