<svg id="visual" viewBox="0 0 900 600" width="900" height="600" xmlns="http://www.w3.org/2000/svg" xmlns:xlink="http://www.w3.org/1999/xlink" version="1.1"><path d="M0 49L13.7 51C27.3 53 54.7 57 82 59C109.3 61 136.7 61 163.8 60C191 59 218 57 245.2 59C272.3 61 299.7 67 327 63C354.3 59 381.7 45 409 42C436.3 39 463.7 47 491 46C518.3 45 545.7 35 573 36C600.3 37 627.7 49 654.8 52C682 55 709 49 736.2 49C763.3 49 790.7 55 818 52C845.3 49 872.7 37 886.3 31L900 25L900 0L886.3 0C872.7 0 845.3 0 818 0C790.7 0 763.3 0 736.2 0C709 0 682 0 654.8 0C627.7 0 600.3 0 573 0C545.7 0 518.3 0 491 0C463.7 0 436.3 0 409 0C381.7 0 354.3 0 327 0C299.7 0 272.3 0 245.2 0C218 0 191 0 163.8 0C136.7 0 109.3 0 82 0C54.7 0 27.3 0 13.7 0L0 0Z" fill="#e6cbb6"></path><path d="M0 175L13.7 176C27.3 177 54.7 179 82 176C109.3 173 136.7 165 163.8 161C191 157 218 157 245.2 173C272.3 189 299.7 221 327 221C354.3 221 381.7 189 409 194C436.3 199 463.7 241 491 234C518.3 227 545.7 171 573 153C600.3 135 627.7 155 654.8 180C682 205 709 235 736.2 245C763.3 255 790.7 245 818 237C845.3 229 872.7 223 886.3 220L900 217L900 23L886.3 29C872.7 35 845.3 47 818 50C790.7 53 763.3 47 736.2 47C709 47 682 53 654.8 50C627.7 47 600.3 35 573 34C545.7 33 518.3 43 491 44C463.7 45 436.3 37 409 40C381.7 43 354.3 57 327 61C299.7 65 272.3 59 245.2 57C218 55 191 57 163.8 58C136.7 59 109.3 59 82 57C54.7 55 27.3 51 13.7 49L0 47Z" fill="#e2c4ab"></path><path d="M0 331L13.7 343C27.3 355 54.7 379 82 385C109.3 391 136.7 379 163.8 372C191 365 218 363 245.2 357C272.3 351 299.7 341 327 337C354.3 333 381.7 335 409 345C436.3 355 463.7 373 491 373C518.3 373 545.7 355 573 343C600.3 331 627.7 325 654.8 330C682 335 709 351 736.2 353C763.3 355 790.7 343 818 343C845.3 343 872.7 355 886.3 361L900 367L900 215L886.3 218C872.7 221 845.3 227 818 235C790.7 243 763.3 253 736.2 243C709 233 682 203 654.8 178C627.7 153 600.3 133 573 151C545.7 169 518.3 225 491 232C463.7 239 436.3 197 409 192C381.7 187 354.3 219 327 219C299.7 219 272.3 187 245.2 171C218 155 191 155 163.8 159C136.7 163 109.3 171 82 174C54.7 177 27.3 175 13.7 174L0 173Z" fill="#debca1"></path><path d="M0 379L13.7 388C27.3 397 54.7 415 82 426C109.3 437 136.7 441 163.8 436C191 431 218 417 245.2 407C272.3 397 299.7 391 327 392C354.3 393 381.7 401 409 414C436.3 427 463.7 445 491 447C518.3 449 545.7 435 573 422C600.3 409 627.7 397 654.8 397C682 397 709 409 736.2 408C763.3 407 790.7 393 818 392C845.3 391 872.7 403 886.3 409L900 415L900 365L886.3 359C872.7 353 845.3 341 818 341C790.7 341 763.3 353 736.2 351C709 349 682 333 654.8 328C627.7 323 600.3 329 573 341C545.7 353 518.3 371 491 371C463.7 371 436.3 353 409 343C381.7 333 354.3 331 327 335C299.7 339 272.3 349 245.2 355C218 361 191 363 163.8 370C136.7 377 109.3 389 82 383C54.7 377 27.3 353 13.7 341L0 329Z" fill="#d9b596"></path><path d="M0 433L13.7 448C27.3 463 54.7 493 82 505C109.3 517 136.7 511 163.8 500C191 489 218 473 245.2 475C272.3 477 299.7 497 327 509C354.3 521 381.7 525 409 524C436.3 523 463.7 517 491 515C518.3 513 545.7 515 573 506C600.3 497 627.7 477 654.8 479C682 481 709 505 736.2 511C763.3 517 790.7 505 818 503C845.3 501 872.7 509 886.3 513L900 517L900 413L886.3 407C872.7 401 845.3 389 818 390C790.7 391 763.3 405 736.2 406C709 407 682 395 654.8 395C627.7 395 600.3 407 573 420C545.7 433 518.3 447 491 445C463.7 443 436.3 425 409 412C381.7 399 354.3 391 327 390C299.7 389 272.3 395 245.2 405C218 415 191 429 163.8 434C136.7 439 109.3 435 82 424C54.7 413 27.3 395 13.7 386L0 377Z" fill="#d0aa8a"></path><path d="M0 499L13.7 510C27.3 521 54.7 543 82 551C109.3 559 136.7 553 163.8 543C191 533 218 519 245.2 518C272.3 517 299.7 529 327 539C354.3 549 381.7 557 409 562C436.3 567 463.7 569 491 565C518.3 561 545.7 551 573 543C600.3 535 627.7 529 654.8 532C682 535 709 547 736.2 548C763.3 549 790.7 539 818 539C845.3 539 872.7 549 886.3 554L900 559L900 515L886.3 511C872.7 507 845.3 499 818 501C790.7 503 763.3 515 736.2 509C709 503 682 479 654.8 477C627.7 475 600.3 495 573 504C545.7 513 518.3 511 491 513C463.7 515 436.3 521 409 522C381.7 523 354.3 519 327 507C299.7 495 272.3 475 245.2 473C218 471 191 487 163.8 498C136.7 509 109.3 515 82 503C54.7 491 27.3 461 13.7 446L0 431Z" fill="#c7a07e"></path><path d="M0 601L13.7 601C27.3 601 54.7 601 82 601C109.3 601 136.7 601 163.8 601C191 601 218 601 245.2 601C272.3 601 299.7 601 327 601C354.3 601 381.7 601 409 601C436.3 601 463.7 601 491 601C518.3 601 545.7 601 573 601C600.3 601 627.7 601 654.8 601C682 601 709 601 736.2 601C763.3 601 790.7 601 818 601C845.3 601 872.7 601 886.3 601L900 601L900 557L886.3 552C872.7 547 845.3 537 818 537C790.7 537 763.3 547 736.2 546C709 545 682 533 654.8 530C627.7 527 600.3 533 573 541C545.7 549 518.3 559 491 563C463.7 567 436.3 565 409 560C381.7 555 354.3 547 327 537C299.7 527 272.3 515 245.2 516C218 517 191 531 163.8 541C136.7 551 109.3 557 82 549C54.7 541 27.3 519 13.7 508L0 497Z" fill="#be9573"></path></svg>