<svg id="visual" viewBox="0 0 900 600" width="900" height="600" xmlns="http://www.w3.org/2000/svg" xmlns:xlink="http://www.w3.org/1999/xlink" version="1.1"><g stroke-width="1" stroke-linejoin="bevel"><path d="M438 321L438 407L476 307Z" fill="#ceaa8a" stroke="#ceaa8a"></path><path d="M438 407L487 424L476 307Z" fill="#c39e7e" stroke="#c39e7e"></path><path d="M487 424L561 323L476 307Z" fill="#c39e7e" stroke="#c39e7e"></path><path d="M367 469L534 471L487 424Z" fill="#c09a7a" stroke="#c09a7a"></path><path d="M487 424L597 428L561 323Z" fill="#bc9776" stroke="#bc9776"></path><path d="M534 471L597 428L487 424Z" fill="#d2ad8e" stroke="#d2ad8e"></path><path d="M276 419L367 469L438 407Z" fill="#c7a282" stroke="#c7a282"></path><path d="M438 407L367 469L487 424Z" fill="#b58f6e" stroke="#b58f6e"></path><path d="M509 600L599 481L534 471Z" fill="#cba686" stroke="#cba686"></path><path d="M534 471L599 481L597 428Z" fill="#ceaa8a" stroke="#ceaa8a"></path><path d="M561 323L514 196L476 307Z" fill="#d5b192" stroke="#d5b192"></path><path d="M476 307L413 199L438 321Z" fill="#bc9776" stroke="#bc9776"></path><path d="M514 196L413 199L476 307Z" fill="#c7a282" stroke="#c7a282"></path><path d="M438 321L276 419L438 407Z" fill="#d9b596" stroke="#d9b596"></path><path d="M698 323L591 205L561 323Z" fill="#d5b192" stroke="#d5b192"></path><path d="M561 323L591 205L514 196Z" fill="#b58f6e" stroke="#b58f6e"></path><path d="M679 376L561 323L597 428Z" fill="#d9b596" stroke="#d9b596"></path><path d="M323 217L299 268L438 321Z" fill="#bc9776" stroke="#bc9776"></path><path d="M599 481L679 376L597 428Z" fill="#ceaa8a" stroke="#ceaa8a"></path><path d="M299 268L276 419L438 321Z" fill="#b99372" stroke="#b99372"></path><path d="M413 199L323 217L438 321Z" fill="#ceaa8a" stroke="#ceaa8a"></path><path d="M679 376L698 323L561 323Z" fill="#d5b192" stroke="#d5b192"></path><path d="M406 600L534 471L367 469Z" fill="#bc9776" stroke="#bc9776"></path><path d="M406 600L509 600L534 471Z" fill="#d9b596" stroke="#d9b596"></path><path d="M599 481L696 528L679 376Z" fill="#c09a7a" stroke="#c09a7a"></path><path d="M225 375L261 470L276 419Z" fill="#c7a282" stroke="#c7a282"></path><path d="M276 419L261 470L367 469Z" fill="#c7a282" stroke="#c7a282"></path><path d="M273 600L406 600L367 469Z" fill="#b99372" stroke="#b99372"></path><path d="M698 323L663 198L591 205Z" fill="#d2ad8e" stroke="#d2ad8e"></path><path d="M588 101L477 83L514 196Z" fill="#c39e7e" stroke="#c39e7e"></path><path d="M299 268L225 375L276 419Z" fill="#d2ad8e" stroke="#d2ad8e"></path><path d="M190 269L225 375L299 268Z" fill="#c7a282" stroke="#c7a282"></path><path d="M631 600L696 528L599 481Z" fill="#b99372" stroke="#b99372"></path><path d="M679 376L792 393L698 323Z" fill="#cba686" stroke="#cba686"></path><path d="M236 104L234 231L323 217Z" fill="#d2ad8e" stroke="#d2ad8e"></path><path d="M323 217L234 231L299 268Z" fill="#d9b596" stroke="#d9b596"></path><path d="M588 101L514 196L591 205Z" fill="#c39e7e" stroke="#c39e7e"></path><path d="M514 196L477 83L413 199Z" fill="#ceaa8a" stroke="#ceaa8a"></path><path d="M413 199L310 103L323 217Z" fill="#c09a7a" stroke="#c09a7a"></path><path d="M509 600L631 600L599 481Z" fill="#d9b596" stroke="#d9b596"></path><path d="M663 198L588 101L591 205Z" fill="#d5b192" stroke="#d5b192"></path><path d="M234 231L190 269L299 268Z" fill="#c7a282" stroke="#c7a282"></path><path d="M114 432L199 487L225 375Z" fill="#bc9776" stroke="#bc9776"></path><path d="M225 375L199 487L261 470Z" fill="#ceaa8a" stroke="#ceaa8a"></path><path d="M261 470L273 600L367 469Z" fill="#c7a282" stroke="#c7a282"></path><path d="M477 83L373 78L413 199Z" fill="#b99372" stroke="#b99372"></path><path d="M234 231L121 227L190 269Z" fill="#ceaa8a" stroke="#ceaa8a"></path><path d="M631 600L672 600L696 528Z" fill="#d2ad8e" stroke="#d2ad8e"></path><path d="M373 78L310 103L413 199Z" fill="#d2ad8e" stroke="#d2ad8e"></path><path d="M199 487L273 600L261 470Z" fill="#c09a7a" stroke="#c09a7a"></path><path d="M696 528L792 393L679 376Z" fill="#ceaa8a" stroke="#ceaa8a"></path><path d="M698 323L779 188L663 198Z" fill="#bc9776" stroke="#bc9776"></path><path d="M797 531L792 393L696 528Z" fill="#cba686" stroke="#cba686"></path><path d="M792 393L788 300L698 323Z" fill="#bc9776" stroke="#bc9776"></path><path d="M663 198L672 79L588 101Z" fill="#cba686" stroke="#cba686"></path><path d="M779 188L672 79L663 198Z" fill="#c39e7e" stroke="#c39e7e"></path><path d="M564 0L473 0L477 83Z" fill="#d5b192" stroke="#d5b192"></path><path d="M477 83L473 0L373 78Z" fill="#c7a282" stroke="#c7a282"></path><path d="M199 487L219 600L273 600Z" fill="#c09a7a" stroke="#c09a7a"></path><path d="M788 300L779 188L698 323Z" fill="#c7a282" stroke="#c7a282"></path><path d="M323 0L236 104L310 103Z" fill="#d5b192" stroke="#d5b192"></path><path d="M310 103L236 104L323 217Z" fill="#b58f6e" stroke="#b58f6e"></path><path d="M121 227L125 293L190 269Z" fill="#c39e7e" stroke="#c39e7e"></path><path d="M190 269L125 293L225 375Z" fill="#cba686" stroke="#cba686"></path><path d="M199 487L128 600L219 600Z" fill="#d2ad8e" stroke="#d2ad8e"></path><path d="M784 600L797 531L696 528Z" fill="#b99372" stroke="#b99372"></path><path d="M564 0L477 83L588 101Z" fill="#c7a282" stroke="#c7a282"></path><path d="M373 78L323 0L310 103Z" fill="#bc9776" stroke="#bc9776"></path><path d="M125 293L114 432L225 375Z" fill="#ceaa8a" stroke="#ceaa8a"></path><path d="M672 79L564 0L588 101Z" fill="#d5b192" stroke="#d5b192"></path><path d="M473 0L377 0L373 78Z" fill="#b58f6e" stroke="#b58f6e"></path><path d="M236 104L121 227L234 231Z" fill="#d9b596" stroke="#d9b596"></path><path d="M125 293L0 385L114 432Z" fill="#d5b192" stroke="#d5b192"></path><path d="M672 600L784 600L696 528Z" fill="#d2ad8e" stroke="#d2ad8e"></path><path d="M0 503L109 505L114 432Z" fill="#c09a7a" stroke="#c09a7a"></path><path d="M114 432L109 505L199 487Z" fill="#bc9776" stroke="#bc9776"></path><path d="M377 0L323 0L373 78Z" fill="#ceaa8a" stroke="#ceaa8a"></path><path d="M236 104L104 65L121 227Z" fill="#c39e7e" stroke="#c39e7e"></path><path d="M109 505L128 600L199 487Z" fill="#c7a282" stroke="#c7a282"></path><path d="M779 188L771 64L672 79Z" fill="#cba686" stroke="#cba686"></path><path d="M672 79L702 0L564 0Z" fill="#ceaa8a" stroke="#ceaa8a"></path><path d="M900 137L771 64L779 188Z" fill="#d9b596" stroke="#d9b596"></path><path d="M792 393L900 374L788 300Z" fill="#d2ad8e" stroke="#d2ad8e"></path><path d="M788 300L900 264L779 188Z" fill="#c7a282" stroke="#c7a282"></path><path d="M900 487L900 374L792 393Z" fill="#ceaa8a" stroke="#ceaa8a"></path><path d="M900 487L792 393L797 531Z" fill="#d5b192" stroke="#d5b192"></path><path d="M771 64L702 0L672 79Z" fill="#d9b596" stroke="#d9b596"></path><path d="M900 374L900 264L788 300Z" fill="#c7a282" stroke="#c7a282"></path><path d="M900 600L900 487L797 531Z" fill="#d5b192" stroke="#d5b192"></path><path d="M323 0L201 0L236 104Z" fill="#c09a7a" stroke="#c09a7a"></path><path d="M900 264L900 192L779 188Z" fill="#d2ad8e" stroke="#d2ad8e"></path><path d="M0 282L0 385L125 293Z" fill="#d2ad8e" stroke="#d2ad8e"></path><path d="M109 505L0 600L128 600Z" fill="#bc9776" stroke="#bc9776"></path><path d="M0 282L125 293L121 227Z" fill="#c7a282" stroke="#c7a282"></path><path d="M900 0L782 0L771 64Z" fill="#d5b192" stroke="#d5b192"></path><path d="M771 64L782 0L702 0Z" fill="#d5b192" stroke="#d5b192"></path><path d="M201 0L104 65L236 104Z" fill="#bc9776" stroke="#bc9776"></path><path d="M900 192L900 137L779 188Z" fill="#cba686" stroke="#cba686"></path><path d="M0 166L0 282L121 227Z" fill="#ceaa8a" stroke="#ceaa8a"></path><path d="M784 600L900 600L797 531Z" fill="#c39e7e" stroke="#c39e7e"></path><path d="M0 385L0 503L114 432Z" fill="#ceaa8a" stroke="#ceaa8a"></path><path d="M201 0L120 0L104 65Z" fill="#d2ad8e" stroke="#d2ad8e"></path><path d="M104 65L0 166L121 227Z" fill="#bc9776" stroke="#bc9776"></path><path d="M0 121L0 166L104 65Z" fill="#ceaa8a" stroke="#ceaa8a"></path><path d="M0 503L0 600L109 505Z" fill="#c39e7e" stroke="#c39e7e"></path><path d="M0 0L0 121L104 65Z" fill="#b99372" stroke="#b99372"></path><path d="M900 137L900 0L771 64Z" fill="#d2ad8e" stroke="#d2ad8e"></path><path d="M120 0L0 0L104 65Z" fill="#b58f6e" stroke="#b58f6e"></path></g></svg>