<svg id="visual" viewBox="0 0 1920 1280" width="1920" height="1280" xmlns="http://www.w3.org/2000/svg" xmlns:xlink="http://www.w3.org/1999/xlink" version="1.1"><rect x="0" y="0" width="1920" height="1280" fill="#D9B596"></rect><path d="M0 952L274 858L549 880L823 810L1097 882L1371 946L1646 918L1920 794L1920 1281L1646 1281L1371 1281L1097 1281L823 1281L549 1281L274 1281L0 1281Z" fill="#8c6849"></path><path d="M0 908L274 968L549 955L823 867L1097 985L1371 960L1646 998L1920 901L1920 1281L1646 1281L1371 1281L1097 1281L823 1281L549 1281L274 1281L0 1281Z" fill="#70543a"></path><path d="M0 992L274 933L549 996L823 1091L1097 1069L1371 1059L1646 1017L1920 961L1920 1281L1646 1281L1371 1281L1097 1281L823 1281L549 1281L274 1281L0 1281Z" fill="#56402c"></path><path d="M0 1133L274 1035L549 1126L823 1091L1097 1091L1371 1032L1646 1130L1920 1065L1920 1281L1646 1281L1371 1281L1097 1281L823 1281L549 1281L274 1281L0 1281Z" fill="#3d2d1e"></path><path d="M0 1143L274 1131L549 1123L823 1156L1097 1153L1371 1165L1646 1203L1920 1179L1920 1281L1646 1281L1371 1281L1097 1281L823 1281L549 1281L274 1281L0 1281Z" fill="#261b11"></path></svg>