<svg id="visual" viewBox="0 0 1920 1280" width="1920" height="1280" xmlns="http://www.w3.org/2000/svg" xmlns:xlink="http://www.w3.org/1999/xlink" version="1.1"><path d="M0 103L175 219L349 167L524 193L698 206L873 78L1047 193L1222 219L1396 155L1571 193L1745 103L1920 180L1920 0L1745 0L1571 0L1396 0L1222 0L1047 0L873 0L698 0L524 0L349 0L175 0L0 0Z" fill="#d9b596"></path><path d="M0 334L175 334L349 321L524 385L698 398L873 257L1047 398L1222 308L1396 321L1571 295L1745 321L1920 411L1920 178L1745 101L1571 191L1396 153L1222 217L1047 191L873 76L698 204L524 191L349 165L175 217L0 101Z" fill="#c5a182"></path><path d="M0 462L175 449L349 654L524 500L698 526L873 449L1047 654L1222 603L1396 654L1571 487L1745 551L1920 551L1920 409L1745 319L1571 293L1396 319L1222 306L1047 396L873 255L698 396L524 383L349 319L175 332L0 332Z" fill="#b28e6e"></path><path d="M0 820L175 756L349 948L524 974L698 859L873 961L1047 897L1222 859L1396 1076L1571 871L1745 1038L1920 1102L1920 549L1745 549L1571 485L1396 652L1222 601L1047 652L873 447L698 524L524 498L349 652L175 447L0 460Z" fill="#9f7b5b"></path><path d="M0 1281L175 1281L349 1281L524 1281L698 1281L873 1281L1047 1281L1222 1281L1396 1281L1571 1281L1745 1281L1920 1281L1920 1100L1745 1036L1571 869L1396 1074L1222 857L1047 895L873 959L698 857L524 972L349 946L175 754L0 818Z" fill="#8c6849"></path></svg>